<svg height="1374" width="720" xmlns="http://www.w3.org/2000/svg">
<rect height="1374" fill="#555" width="720"></rect>
<text fill="#7f7" font-family="Courier New" font-size="12" xml:space="preserve">
<tspan x="10" y="26">22 megabytes installed</tspan>
<tspan x="10" y="42"></tspan>
<tspan x="10" y="58">node_modules</tspan>
<tspan x="10" y="74">└─┬ ogr2ogr@1.0.1 </tspan>
<tspan x="10" y="90">  ├─┬ archiver@1.1.0 </tspan>
<tspan x="10" y="106">  │ ├─┬ archiver-utils@1.3.0 </tspan>
<tspan x="10" y="122">  │ │ ├── graceful-fs@4.1.6 </tspan>
<tspan x="10" y="138">  │ │ ├── lazystream@1.0.0 </tspan>
<tspan x="10" y="154">  │ │ └── normalize-path@2.0.1 </tspan>
<tspan x="10" y="170">  │ ├── async@2.0.1 </tspan>
<tspan x="10" y="186">  │ ├── buffer-crc32@0.2.5 </tspan>
<tspan x="10" y="202">  │ ├─┬ glob@7.0.6 </tspan>
<tspan x="10" y="218">  │ │ ├── fs.realpath@1.0.0 </tspan>
<tspan x="10" y="234">  │ │ ├─┬ inflight@1.0.5 </tspan>
<tspan x="10" y="250">  │ │ │ └── wrappy@1.0.2 </tspan>
<tspan x="10" y="266">  │ │ ├── inherits@2.0.1 </tspan>
<tspan x="10" y="282">  │ │ ├─┬ minimatch@3.0.3 </tspan>
<tspan x="10" y="298">  │ │ │ └─┬ brace-expansion@1.1.6 </tspan>
<tspan x="10" y="314">  │ │ │   ├── balanced-match@0.4.2 </tspan>
<tspan x="10" y="330">  │ │ │   └── concat-map@0.0.1 </tspan>
<tspan x="10" y="346">  │ │ ├─┬ once@1.3.3 </tspan>
<tspan x="10" y="362">  │ │ │ └── wrappy@1.0.2 </tspan>
<tspan x="10" y="378">  │ │ └── path-is-absolute@1.0.0 </tspan>
<tspan x="10" y="394">  │ ├── lodash@4.15.0 </tspan>
<tspan x="10" y="410">  │ ├─┬ readable-stream@2.1.5 </tspan>
<tspan x="10" y="426">  │ │ ├── buffer-shims@1.0.0 </tspan>
<tspan x="10" y="442">  │ │ ├── core-util-is@1.0.2 </tspan>
<tspan x="10" y="458">  │ │ ├── inherits@2.0.1 </tspan>
<tspan x="10" y="474">  │ │ ├── isarray@1.0.0 </tspan>
<tspan x="10" y="490">  │ │ ├── process-nextick-args@1.0.7 </tspan>
<tspan x="10" y="506">  │ │ ├── string_decoder@0.10.31 </tspan>
<tspan x="10" y="522">  │ │ └── util-deprecate@1.0.2 </tspan>
<tspan x="10" y="538">  │ ├─┬ tar-stream@1.5.2 </tspan>
<tspan x="10" y="554">  │ │ ├─┬ bl@1.1.2 </tspan>
<tspan x="10" y="570">  │ │ │ └─┬ readable-stream@2.0.6 </tspan>
<tspan x="10" y="586">  │ │ │   ├── core-util-is@1.0.2 </tspan>
<tspan x="10" y="602">  │ │ │   ├── inherits@2.0.1 </tspan>
<tspan x="10" y="618">  │ │ │   ├── isarray@1.0.0 </tspan>
<tspan x="10" y="634">  │ │ │   ├── process-nextick-args@1.0.7 </tspan>
<tspan x="10" y="650">  │ │ │   ├── string_decoder@0.10.31 </tspan>
<tspan x="10" y="666">  │ │ │   └── util-deprecate@1.0.2 </tspan>
<tspan x="10" y="682">  │ │ ├─┬ end-of-stream@1.1.0 </tspan>
<tspan x="10" y="698">  │ │ │ └─┬ once@1.3.3 </tspan>
<tspan x="10" y="714">  │ │ │   └── wrappy@1.0.2 </tspan>
<tspan x="10" y="730">  │ │ └── xtend@4.0.1 </tspan>
<tspan x="10" y="746">  │ └─┬ zip-stream@1.1.0 </tspan>
<tspan x="10" y="762">  │   └─┬ compress-commons@1.1.0 </tspan>
<tspan x="10" y="778">  │     ├── crc32-stream@1.0.0 </tspan>
<tspan x="10" y="794">  │     └── normalize-path@2.0.1 </tspan>
<tspan x="10" y="810">  ├── comma-separated-values@3.6.4 </tspan>
<tspan x="10" y="826">  ├─┬ decompress-zip@0.3.0 </tspan>
<tspan x="10" y="842">  │ ├─┬ binary@0.3.0 </tspan>
<tspan x="10" y="858">  │ │ ├── buffers@0.1.1 </tspan>
<tspan x="10" y="874">  │ │ └─┬ chainsaw@0.1.0 </tspan>
<tspan x="10" y="890">  │ │   └── traverse@0.3.9 </tspan>
<tspan x="10" y="906">  │ ├── graceful-fs@4.1.6 </tspan>
<tspan x="10" y="922">  │ ├── mkpath@0.1.0 </tspan>
<tspan x="10" y="938">  │ ├─┬ nopt@3.0.6 </tspan>
<tspan x="10" y="954">  │ │ └── abbrev@1.0.9 </tspan>
<tspan x="10" y="970">  │ ├── q@1.4.1 </tspan>
<tspan x="10" y="986">  │ ├─┬ readable-stream@1.1.14 </tspan>
<tspan x="10" y="1002">  │ │ ├── core-util-is@1.0.2 </tspan>
<tspan x="10" y="1018">  │ │ ├── inherits@2.0.1 </tspan>
<tspan x="10" y="1034">  │ │ ├── isarray@0.0.1 </tspan>
<tspan x="10" y="1050">  │ │ └── string_decoder@0.10.31 </tspan>
<tspan x="10" y="1066">  │ └─┬ touch@0.0.3 </tspan>
<tspan x="10" y="1082">  │   └─┬ nopt@1.0.10 </tspan>
<tspan x="10" y="1098">  │     └── abbrev@1.0.9 </tspan>
<tspan x="10" y="1114">  ├── findit@2.0.0 </tspan>
<tspan x="10" y="1130">  ├── istanbul@0.4.5  extraneous</tspan>
<tspan x="10" y="1146">  ├─┬ rimraf@2.5.4 </tspan>
<tspan x="10" y="1162">  │ └─┬ glob@7.0.6 </tspan>
<tspan x="10" y="1178">  │   ├── fs.realpath@1.0.0 </tspan>
<tspan x="10" y="1194">  │   ├─┬ inflight@1.0.5 </tspan>
<tspan x="10" y="1210">  │   │ └── wrappy@1.0.2 </tspan>
<tspan x="10" y="1226">  │   ├── inherits@2.0.1 </tspan>
<tspan x="10" y="1242">  │   ├─┬ minimatch@3.0.3 </tspan>
<tspan x="10" y="1258">  │   │ └─┬ brace-expansion@1.1.6 </tspan>
<tspan x="10" y="1274">  │   │   ├── balanced-match@0.4.2 </tspan>
<tspan x="10" y="1290">  │   │   └── concat-map@0.0.1 </tspan>
<tspan x="10" y="1306">  │   ├─┬ once@1.3.3 </tspan>
<tspan x="10" y="1322">  │   │ └── wrappy@1.0.2 </tspan>
<tspan x="10" y="1338">  │   └── path-is-absolute@1.0.0 </tspan>
<tspan x="10" y="1354">  └── tape@4.6.0  extraneous</tspan>
</text>
</svg>
